# xmcd
#
# Track frame offsets:
#	150
#	18202
#	41967
#	57906
#	82093
#	108053
#	134054
#	152276
#	173178
#	187952
#	210020
#
# Disc length: 3060 seconds
#
# Revision: 0
# Processed by: cddbd v1.4PL0 Copyright (c) Steve Scherf et al.
# Submitted via: dBpowerAMP V4.0
#
DISCID=850bf20b
DTITLE=Peggy Scott=Adams - Hot &Sassy
DYEAR=1900
DGENRE=Blues
TTITLE0=Mr. Right or Mr. Wrong
TTITLE1=Your divorce Has Been Denied
TTITLE2=If It Ain't Broke Don't Fix It
TTITLE3=This Time It Is About Me
TTITLE4=Just Go Away
TTITLE5=If I'm Still Not Married
TTITLE6=If I Was Getting It At Home
TTITLE7=I'm That Kind Of Woman
TTITLE8=You Got To Be Good To Me
TTITLE9=Some Things You Just Don"t Do
TTITLE10=She's Getting Into My Pants
EXTD=
EXTT0=
EXTT1=
EXTT2=
EXTT3=
EXTT4=
EXTT5=
EXTT6=
EXTT7=
EXTT8=
EXTT9=
EXTT10=
PLAYORDER=
